<?xml version="1.0" standalone="no"?>
<!DOCTYPE svg PUBLIC "-//W3C//DTD SVG 20010904//EN"
 "http://www.w3.org/TR/2001/REC-SVG-20010904/DTD/svg10.dtd">
<svg version="1.0" xmlns="http://www.w3.org/2000/svg"
 width="557.000000pt" height="160.000000pt" viewBox="0 0 557.000000 160.000000"
 preserveAspectRatio="xMidYMid meet">

<g transform="translate(0.000000,160.000000) scale(0.100000,-0.100000)"
fill="#000000" stroke="none">
<path d="M1912 1408 c-32 -32 9 -96 44 -67 19 16 18 65 -2 73 -22 8 -28 8 -42
-6z"/>
<path d="M1542 1233 c-39 -19 -62 -59 -62 -108 0 -53 38 -86 138 -119 84 -28
102 -44 102 -89 0 -38 -35 -62 -88 -61 -37 1 -50 6 -73 31 -15 17 -32 39 -37
49 -16 28 -48 5 -45 -31 4 -58 67 -95 159 -95 103 0 154 44 154 133 0 38 -5
49 -34 74 -20 18 -59 37 -98 47 -91 25 -113 45 -109 99 1 23 57 47 93 40 16
-3 41 -21 58 -39 37 -43 70 -46 70 -6 0 74 -139 119 -228 75z"/>
<path d="M1912 1238 c-14 -14 -17 -395 -3 -416 4 -8 19 -12 32 -10 l24 3 3
195 c1 107 0 205 -3 218 -6 24 -34 29 -53 10z"/>
<path d="M2100 1231 c-13 -26 -13 -376 0 -402 6 -10 19 -19 30 -19 32 0 40 33
40 165 0 92 4 134 15 155 32 62 97 79 140 35 24 -23 25 -30 26 -162 1 -153 7
-186 32 -191 41 -8 47 13 47 175 0 169 -8 204 -55 241 -48 38 -132 25 -192
-31 l-23 -20 0 20 c0 52 -38 73 -60 34z"/>
<path d="M2634 1236 c-63 -28 -104 -111 -104 -212 0 -92 43 -174 106 -200 43
-18 125 -18 168 0 55 23 96 92 66 111 -6 4 -31 -12 -57 -34 -38 -34 -53 -41
-87 -41 -67 0 -116 51 -116 120 l0 30 113 0 c133 0 161 10 165 59 5 51 -39
132 -87 159 -45 25 -119 29 -167 8z m122 -55 c32 -20 64 -74 64 -110 0 -20 -5
-21 -104 -21 -58 0 -107 3 -109 8 -8 11 19 81 40 104 35 40 66 45 109 19z"/>
<path d="M3000 1231 c-6 -12 -10 -95 -10 -201 0 -188 6 -220 41 -220 29 0 39
38 39 158 0 59 5 124 10 144 14 51 53 80 96 72 27 -5 33 -2 39 16 13 42 -37
65 -88 39 -12 -6 -32 -23 -44 -37 -22 -26 -23 -26 -23 -5 0 52 -38 74 -60 34z"/>
<path d="M3320 1231 c-56 -30 -85 -97 -84 -196 0 -96 28 -165 78 -197 42 -26
133 -21 176 10 16 12 32 22 36 22 11 0 -3 -115 -17 -138 -20 -33 -62 -45 -122
-38 -93 12 -101 12 -105 -6 -10 -49 168 -73 237 -33 19 11 43 33 55 48 20 27
21 40 21 285 l0 257 -24 0 c-18 0 -27 -8 -35 -33 -10 -29 -12 -30 -23 -14 -30
49 -132 66 -193 33z m139 -56 c30 -15 59 -66 68 -118 11 -72 -40 -169 -97
-182 -61 -13 -120 63 -120 154 0 63 19 111 55 139 32 26 55 27 94 7z"/>
<path d="M3687 1243 c-14 -13 -7 -42 60 -239 l67 -200 -17 -46 c-19 -49 -48
-68 -97 -65 -20 2 -25 -3 -25 -23 0 -57 129 -47 165 13 28 46 182 512 178 539
-2 14 -11 24 -24 26 -25 4 -25 4 -90 -211 -26 -86 -51 -154 -54 -150 -4 5 -26
73 -49 152 -54 185 -65 211 -89 211 -10 0 -22 -3 -25 -7z"/>
<path d="M4460 1239 c-144 -58 -156 -314 -20 -407 30 -20 45 -23 101 -20 116
6 170 70 177 208 3 66 0 81 -25 130 -22 43 -38 60 -73 78 -47 23 -116 28 -160
11z m129 -65 c50 -36 73 -134 51 -216 -12 -43 -71 -98 -104 -98 -53 0 -115 86
-116 160 0 124 92 208 169 154z"/>
<path d="M4880 1231 c-56 -30 -85 -97 -85 -196 0 -95 29 -165 79 -196 46 -28
119 -25 173 6 l43 26 0 -38 c0 -57 -18 -111 -43 -128 -26 -18 -107 -20 -154
-3 -29 10 -36 10 -43 -2 -15 -23 -12 -28 20 -45 74 -38 196 -26 244 24 15 15
31 43 36 62 12 42 13 479 1 497 -14 23 -44 9 -56 -27 -8 -26 -13 -31 -18 -18
-9 24 -81 57 -124 57 -21 0 -54 -8 -73 -19z m140 -51 c27 -14 57 -69 65 -116
14 -91 -40 -184 -107 -184 -68 0 -108 59 -108 157 0 59 22 112 59 140 19 15
66 17 91 3z"/>
<path d="M5303 1230 c-63 -38 -80 -108 -39 -157 24 -28 42 -38 151 -79 62 -24
86 -60 66 -98 -34 -62 -132 -54 -178 15 -30 45 -56 48 -61 7 -4 -35 21 -72 63
-92 41 -20 134 -21 180 -2 89 37 98 168 15 211 -17 9 -58 24 -91 35 -33 10
-69 26 -80 36 -53 48 16 119 90 93 15 -6 38 -23 50 -40 27 -36 64 -37 69 -1 4
29 -45 77 -89 86 -58 11 -113 6 -146 -14z"/>
<path d="M89 1107 c-58 -39 -81 -83 -77 -148 7 -102 67 -150 200 -164 131 -14
209 -100 209 -228 0 -133 -39 -175 -218 -227 -120 -34 -166 -92 -149 -186 13
-67 104 -144 172 -144 81 0 129 64 150 202 21 142 64 190 186 207 36 5 79 16
96 25 77 40 113 144 77 220 -28 59 -77 85 -180 97 -148 16 -179 43 -209 178
-30 136 -81 191 -179 191 -29 0 -55 -8 -78 -23z"/>
<path d="M1710 545 c0 -9 5 -15 11 -13 6 2 11 8 11 13 0 5 -5 11 -11 13 -6 2
-11 -4 -11 -13z"/>
<path d="M1970 530 c0 -20 -5 -30 -15 -30 -8 0 -15 -4 -15 -10 0 -5 7 -10 15
-10 12 0 15 -14 15 -70 0 -40 4 -70 10 -70 6 0 10 30 10 70 0 56 3 70 15 70 8
0 15 5 15 10 0 6 -7 10 -15 10 -10 0 -15 10 -15 30 0 17 -4 30 -10 30 -5 0
-10 -13 -10 -30z"/>
<path d="M2240 450 c0 -67 4 -110 10 -110 6 0 10 43 10 110 0 67 -4 110 -10
110 -6 0 -10 -43 -10 -110z"/>
<path d="M2292 548 c6 -18 28 -21 28 -4 0 9 -7 16 -16 16 -9 0 -14 -5 -12 -12z"/>
<path d="M3110 544 c0 -17 22 -14 28 4 2 7 -3 12 -12 12 -9 0 -16 -7 -16 -16z"/>
<path d="M3610 513 c0 -44 -1 -45 -18 -30 -10 10 -32 17 -49 17 -66 0 -99 -92
-50 -138 26 -24 75 -29 96 -9 11 10 14 10 18 0 14 -38 23 0 23 97 0 67 -4 110
-10 110 -5 0 -10 -21 -10 -47z m-14 -57 c21 -33 15 -65 -19 -90 -26 -19 -30
-19 -55 -5 -33 18 -43 77 -17 103 25 25 72 20 91 -8z"/>
<path d="M4902 533 c-1 -22 -7 -33 -17 -33 -8 0 -15 -4 -15 -10 0 -5 7 -10 15
-10 11 0 15 -17 18 -72 l3 -73 2 73 c2 65 4 72 22 72 11 0 20 5 20 10 0 6 -9
10 -19 10 -15 0 -21 8 -24 33 l-4 32 -1 -32z"/>
<path d="M5184 450 c0 -63 1 -89 3 -57 2 31 2 83 0 115 -2 31 -3 5 -3 -58z"/>
<path d="M5276 449 c-48 -104 -57 -151 -12 -61 45 88 75 162 67 162 -5 0 -29
-46 -55 -101z"/>
<path d="M1603 477 c-40 -18 -71 -36 -70 -41 4 -12 137 -69 145 -62 2 3 -24
19 -59 35 l-64 29 40 17 c22 10 50 21 63 26 12 5 22 13 22 19 0 5 -1 10 -2 9
-2 0 -36 -15 -75 -32z"/>
<path d="M5362 499 c2 -6 27 -21 55 -33 29 -12 55 -24 58 -28 3 -3 -21 -16
-54 -29 -34 -13 -61 -28 -61 -32 0 -10 25 -3 97 30 33 14 52 28 47 33 -17 16
-146 70 -142 59z"/>
<path d="M1710 420 c0 -47 4 -80 10 -80 6 0 10 33 10 80 0 47 -4 80 -10 80 -6
0 -10 -33 -10 -80z"/>
<path d="M1770 420 c0 -47 4 -80 10 -80 6 0 10 21 10 48 0 55 21 92 54 92 35
0 46 -20 46 -82 0 -32 4 -58 10 -58 14 0 12 100 -3 130 -16 31 -61 39 -88 14
-17 -16 -19 -16 -19 -1 0 10 -4 17 -10 17 -6 0 -10 -33 -10 -80z"/>
<path d="M2077 488 c-41 -30 -35 -125 8 -142 31 -12 72 -6 88 12 26 28 20 36
-9 13 -34 -27 -50 -26 -79 4 -39 38 -32 45 45 45 78 0 85 8 49 54 -23 29 -72
36 -102 14z m93 -27 c15 -30 14 -31 -45 -31 -38 0 -55 4 -55 13 0 39 81 53
100 18z"/>
<path d="M2300 420 c0 -47 4 -80 10 -80 6 0 10 33 10 80 0 47 -4 80 -10 80 -6
0 -10 -33 -10 -80z"/>
<path d="M2389 490 c-9 -5 -22 -23 -29 -40 -26 -62 37 -128 96 -101 14 6 27
11 29 11 10 0 4 -37 -7 -48 -17 -17 -78 -15 -100 5 -10 9 -18 11 -18 5 0 -18
43 -42 75 -42 20 0 40 9 53 23 19 20 22 35 22 110 0 51 -4 87 -10 87 -5 0 -10
-5 -10 -10 0 -7 -6 -7 -19 0 -24 12 -61 13 -82 0z m82 -20 c24 -13 26 -72 3
-94 -33 -34 -104 -8 -104 38 0 53 52 82 101 56z"/>
<path d="M2575 475 c-49 -48 -17 -135 50 -135 35 0 86 33 72 46 -4 5 -11 4
-15 -2 -8 -13 -46 -34 -61 -34 -16 0 -51 38 -51 55 0 12 14 15 70 15 39 0 70
2 70 5 0 16 -31 63 -45 69 -33 12 -66 5 -90 -19z m93 -7 c25 -25 13 -38 -36
-38 -58 0 -68 7 -45 32 18 20 63 24 81 6z"/>
<path d="M2750 421 c0 -47 4 -81 10 -81 6 0 10 26 10 59 0 66 13 84 57 79 27
-3 28 -5 31 -70 4 -86 22 -89 22 -5 0 49 -4 68 -18 80 -21 19 -49 22 -72 7 -9
-5 -19 -5 -27 2 -10 8 -13 -6 -13 -71z"/>
<path d="M2945 475 c-51 -50 -15 -135 58 -135 18 0 42 6 53 14 29 22 11 29
-24 9 -30 -17 -32 -17 -59 3 -54 41 -34 114 32 114 17 0 36 -5 43 -12 6 -6 15
-8 19 -4 13 13 -29 36 -64 36 -23 0 -42 -8 -58 -25z"/>
<path d="M3110 420 c0 -47 4 -80 10 -80 6 0 10 33 10 80 0 47 -4 80 -10 80 -6
0 -10 -33 -10 -80z"/>
<path d="M3195 475 c-31 -30 -32 -73 -4 -109 22 -28 64 -35 100 -16 13 7 19 7
19 0 0 -5 5 -10 10 -10 6 0 10 33 10 80 0 47 -4 80 -10 80 -5 0 -10 -7 -10
-17 0 -15 -1 -15 -18 0 -27 24 -69 21 -97 -8z m97 -12 c18 -16 24 -59 10 -79
-24 -37 -91 -36 -106 1 -26 69 43 126 96 78z"/>
<path d="M3691 474 c-57 -73 18 -167 99 -124 26 14 42 65 29 97 -22 58 -92 73
-128 27z m105 -19 c20 -31 12 -69 -21 -91 -21 -13 -28 -14 -52 -2 -22 10 -29
21 -31 49 -4 44 17 69 58 69 20 0 35 -8 46 -25z"/>
<path d="M3885 475 c-51 -50 -15 -135 58 -135 34 0 77 23 65 35 -3 4 -18 -1
-32 -10 -62 -41 -132 49 -78 98 22 20 73 22 90 5 6 -6 15 -8 19 -4 13 13 -29
36 -64 36 -23 0 -42 -8 -58 -25z"/>
<path d="M4050 456 c0 -62 17 -105 46 -112 38 -10 74 4 84 32 13 33 13 124 0
124 -6 0 -10 -26 -10 -59 0 -50 -4 -62 -21 -75 -44 -30 -79 5 -79 81 0 29 -4
53 -10 53 -5 0 -10 -20 -10 -44z"/>
<path d="M4237 493 c-11 -10 -8 -153 3 -153 6 0 10 21 10 48 0 56 21 92 54 92
29 0 36 -16 36 -86 0 -30 5 -54 10 -54 6 0 10 23 10 51 0 62 13 89 45 89 32 0
39 -13 46 -85 l6 -60 1 71 c1 43 -3 75 -10 82 -16 16 -49 15 -75 -3 -18 -13
-22 -13 -33 0 -15 18 -51 20 -68 3 -10 -10 -14 -10 -21 0 -4 7 -10 9 -14 5z"/>
<path d="M4542 493 c-7 -3 -19 -18 -28 -35 -19 -37 -11 -82 19 -103 29 -21 80
-19 100 3 22 25 22 39 0 20 -32 -28 -58 -30 -86 -7 -47 36 -36 49 43 49 79 0
89 12 45 55 -23 24 -61 31 -93 18z m82 -29 c24 -24 10 -34 -45 -34 -33 0 -49
4 -49 13 0 36 65 51 94 21z"/>
<path d="M4700 420 c0 -47 4 -80 10 -80 6 0 10 23 10 51 0 66 13 89 50 89 36
0 42 -9 50 -84 l7 -61 2 67 c1 89 -30 120 -90 88 -13 -7 -19 -7 -19 0 0 5 -4
10 -10 10 -6 0 -10 -33 -10 -80z"/>
<path d="M5000 480 c-64 -64 -3 -165 80 -133 17 6 30 7 30 2 0 -5 5 -9 10 -9
6 0 10 33 10 80 0 47 -4 80 -10 80 -5 0 -10 -5 -10 -10 0 -7 -6 -7 -19 0 -31
16 -69 12 -91 -10z m95 -16 c10 -11 15 -29 13 -53 -2 -28 -9 -39 -32 -50 -25
-12 -31 -11 -55 6 -32 24 -38 56 -17 89 19 28 66 33 91 8z"/>
</g>
</svg>
