<?xml version="1.0" standalone="no"?><svg xmlns="http://www.w3.org/2000/svg" viewBox="0 0 1440 320"><path fill="#e4fbf3" fill-opacity="1" d="M0,224L26.7,186.7C53.3,149,107,75,160,85.3C213.3,96,267,192,320,218.7C373.3,245,427,203,480,202.7C533.3,203,587,245,640,245.3C693.3,245,747,203,800,160C853.3,117,907,75,960,96C1013.3,117,1067,203,1120,208C1173.3,213,1227,139,1280,106.7C1333.3,75,1387,85,1413,90.7L1440,96L1440,0L1413.3,0C1386.7,0,1333,0,1280,0C1226.7,0,1173,0,1120,0C1066.7,0,1013,0,960,0C906.7,0,853,0,800,0C746.7,0,693,0,640,0C586.7,0,533,0,480,0C426.7,0,373,0,320,0C266.7,0,213,0,160,0C106.7,0,53,0,27,0L0,0Z"></path></svg>