<?xml version="1.0" standalone="no"?><svg xmlns="http://www.w3.org/2000/svg" viewBox="0 0 1440 320"><path fill="#22c58e" fill-opacity="1" d="M0,160L30,160C60,160,120,160,180,133.3C240,107,300,53,360,42.7C420,32,480,64,540,101.3C600,139,660,181,720,170.7C780,160,840,96,900,90.7C960,85,1020,139,1080,186.7C1140,235,1200,277,1260,261.3C1320,245,1380,171,1410,133.3L1440,96L1440,320L1410,320C1380,320,1320,320,1260,320C1200,320,1140,320,1080,320C1020,320,960,320,900,320C840,320,780,320,720,320C660,320,600,320,540,320C480,320,420,320,360,320C300,320,240,320,180,320C120,320,60,320,30,320L0,320Z"></path></svg>