<?xml version="1.0" standalone="no"?><svg xmlns="http://www.w3.org/2000/svg" viewBox="0 0 1440 320"><path fill="#22c58e" fill-opacity="1" d="M0,64L30,80C60,96,120,128,180,128C240,128,300,96,360,90.7C420,85,480,107,540,117.3C600,128,660,128,720,112C780,96,840,64,900,74.7C960,85,1020,139,1080,149.3C1140,160,1200,128,1260,101.3C1320,75,1380,53,1410,42.7L1440,32L1440,320L1410,320C1380,320,1320,320,1260,320C1200,320,1140,320,1080,320C1020,320,960,320,900,320C840,320,780,320,720,320C660,320,600,320,540,320C480,320,420,320,360,320C300,320,240,320,180,320C120,320,60,320,30,320L0,320Z"></path></svg>